name Run_40002_IK.mot
datacolumns 164
datarows 4
range 2.57 2.6
endheader
time	         pelvis_tilt	         pelvis_list	     pelvis_rotation	           pelvis_tx	           pelvis_ty	           pelvis_tz	       hip_flexion_r	     hip_adduction_r	      hip_rotation_r	        knee_angle_r	       ankle_angle_r	       hip_flexion_l	     hip_adduction_l	      hip_rotation_l	        knee_angle_l	       ankle_angle_l	    lumbar_extension	      lumbar_bending	     lumbar_rotation	          arm_flex_r	           arm_add_r	           arm_rot_r	        elbow_flex_r	           pro_sup_r	          arm_flex_l	           arm_add_l	           arm_rot_l	        elbow_flex_l	           pro_sup_l	    subtalar_angle_r	         mtp_angle_r	    subtalar_angle_l	         mtp_angle_l	        wrist_flex_r	         wrist_dev_r	        wrist_flex_l	         wrist_dev_l	             LASI_tx	             LASI_ty	             LASI_tz	             RASI_tx	             RASI_ty	             RASI_tz	             LPSI_tx	             LPSI_ty	             LPSI_tz	             RPSI_tx	             RPSI_ty	             RPSI_tz	             RTH1_tx	             RTH1_ty	             RTH1_tz	             RTH2_tx	             RTH2_ty	             RTH2_tz	             RTH3_tx	             RTH3_ty	             RTH3_tz	             LTH1_tx	             LTH1_ty	             LTH1_tz	             LTH2_tx	             LTH2_ty	             LTH2_tz	             LTH3_tx	             LTH3_ty	             LTH3_tz	             RTB1_tx	             RTB1_ty	             RTB1_tz	             RTB2_tx	             RTB2_ty	             RTB2_tz	             RTB3_tx	             RTB3_ty	             RTB3_tz	             LTB1_tx	             LTB1_ty	             LTB1_tz	             LTB2_tx	             LTB2_ty	             LTB2_tz	             LTB3_tx	             LTB3_ty	             LTB3_tz	             RCAL_tx	             RCAL_ty	             RCAL_tz	             RTOE_tx	             RTOE_ty	             RTOE_tz	             RMT5_tx	             RMT5_ty	             RMT5_tz	             LCAL_tx	             LCAL_ty	             LCAL_tz	             LTOE_tx	             LTOE_ty	             LTOE_tz	             LMT5_tx	             LMT5_ty	             LMT5_tz	             LACR_tx	             LACR_ty	             LACR_tz	             RACR_tx	             RACR_ty	             RACR_tz	             CLAV_tx	             CLAV_ty	             CLAV_tz	               C7_tx	               C7_ty	               C7_tz	             RUA1_tx	             RUA1_ty	             RUA1_tz	             RUA2_tx	             RUA2_ty	             RUA2_tz	             RUA3_tx	             RUA3_ty	             RUA3_tz	             RLEL_tx	             RLEL_ty	             RLEL_tz	             RMEL_tx	             RMEL_ty	             RMEL_tz	             LUA1_tx	             LUA1_ty	             LUA1_tz	             LUA2_tx	             LUA2_ty	             LUA2_tz	             LUA3_tx	             LUA3_ty	             LUA3_tz	             LLEL_tx	             LLEL_ty	             LLEL_tz	             LMEL_tx	             LMEL_ty	             LMEL_tz	      RFAsuperior_tx	      RFAsuperior_ty	      RFAsuperior_tz	        RFAradius_tx	        RFAradius_ty	        RFAradius_tz	          RFAulna_tx	          RFAulna_ty	          RFAulna_tz	      LFAsuperior_tx	      LFAsuperior_ty	      LFAsuperior_tz	        LFAradius_tx	        LFAradius_ty	        LFAradius_tz	          LFAulna_tx	          LFAulna_ty	          LFAulna_tz	
2.57	        -11.05556819	          0.92697253	          6.02374758	          0.98641204	          1.02500486	         -0.36452251	         -5.02927353	          3.53073241	         -1.26964825	        -61.15738927	        -16.61083418	         36.71700952	          9.12453818	          6.63326866	        -11.10546068	          3.07754741	          0.58379626	         -1.04040585	          6.60133383	        -20.26401659	        -21.28647255	         -3.94044768	        118.64523764	        115.51528175	        -51.03013409	        -17.66712117	        -15.13741431	        124.02335400	        107.73346349	          0.00000000	          0.00000000	          0.00000000	          0.00000000	          0.00000000	          0.00000000	          0.00000000	          0.00000000	          0.98702275	          1.07330486	         -0.48341886	          1.01477316	          1.05243917	         -0.24174758	          0.83480228	          1.12283441	         -0.40436850	          0.84993340	          1.11613915	         -0.29154397	          0.93007221	          0.93478379	         -0.18810636	          0.83224732	          0.80857161	         -0.20607388	          0.82199752	          0.65369396	         -0.23010814	          0.95477073	          0.94590887	         -0.54052896	          0.94684776	          0.78010268	         -0.48698722	          1.04810556	          0.67547912	         -0.48583213	          0.66703557	          0.45942013	         -0.29746221	          0.60374610	          0.52126008	         -0.22438729	          0.47619440	          0.43239058	         -0.28888714	          1.18127413	          0.49015021	         -0.41600127	          1.12904946	          0.36187338	         -0.46504227	          1.21164540	          0.27574404	         -0.40043613	          0.34553532	          0.51891467	         -0.25762462	          0.32025189	          0.29117851	         -0.33686743	          0.29191202	          0.31376133	         -0.23797025	          1.13472975	          0.10359519	         -0.37222965	          1.35664515	          0.18334974	         -0.34975461	          1.32250058	          0.10810164	         -0.42479936	          0.94144722	          1.56237829	         -0.50898327	          1.01805702	          1.52991539	         -0.20526876	          1.04194902	          1.49908697	         -0.34180001	          0.91970234	          1.56805810	         -0.34645331	          0.93610969	          1.43391550	         -0.11491120	          0.98763453	          1.37556777	         -0.10229136	          0.93990867	          1.29910445	         -0.04311519	          0.92071331	          1.23618331	         -0.01159039	          0.89097591	          1.21211956	         -0.09430868	          0.81468219	          1.51472725	         -0.53855281	          0.80786142	          1.44123060	         -0.58344496	          0.71266790	          1.41365844	         -0.58945553	          0.66924511	          1.35655669	         -0.60790201	          0.66854364	          1.32641699	         -0.52187292	          1.01475450	          1.20401533	         -0.05929134	          1.11782004	          1.21643341	         -0.20750751	          1.13149327	          1.16562914	         -0.16263156	          0.72072079	          1.29327966	         -0.62194485	          0.89893798	          1.24468432	         -0.56999279	          0.87103479	          1.19280126	         -0.61129942	
2.58	        -10.96550571	          1.08425448	          6.06678664	          0.98612427	          1.01930165	         -0.36466016	         -2.68719633	          2.95075624	         -1.87308973	        -67.68977074	        -16.49198806	         36.07501456	          9.29132766	          6.16554717	        -11.90882287	          2.94163058	          0.31857612	         -1.38015865	          6.15247515	        -21.32434504	        -21.20595475	         -4.18505201	        115.82604441	        114.73688101	        -49.44367995	        -17.61720124	        -14.60004779	        123.53574915	        107.88640448	          0.00000000	          0.00000000	          0.00000000	          0.00000000	          0.00000000	          0.00000000	          0.00000000	          0.00000000	          0.98705359	          1.06700339	         -0.48236407	          1.01484902	          1.04768260	         -0.24229076	          0.83455212	          1.11705058	         -0.40428120	          0.84948088	          1.10974101	         -0.29131897	          0.93217863	          0.92854326	         -0.18882493	          0.83753800	          0.79982494	         -0.20639905	          0.83311729	          0.64462655	         -0.22862374	          0.95288449	          0.93967322	         -0.54157060	          0.94465992	          0.77420383	         -0.48683609	          1.04574221	          0.66968961	         -0.48510854	          0.67965775	          0.45676850	         -0.29571910	          0.62070048	          0.52271490	         -0.22345987	          0.48746768	          0.44270138	         -0.28688564	          1.17463465	          0.48070530	         -0.41677521	          1.11831896	          0.35340654	         -0.46400218	          1.19970450	          0.26547492	         -0.40034656	          0.36368773	          0.53825412	         -0.25664344	          0.32182071	          0.31148783	         -0.33189276	          0.29570392	          0.33799131	         -0.23326886	          1.11851752	          0.09617030	         -0.37005873	          1.34235106	          0.17108411	         -0.34988037	          1.31043038	          0.09301178	         -0.42401166	          0.94272494	          1.55550554	         -0.51103227	          1.01859486	          1.52399920	         -0.20614093	          1.04282887	          1.49312422	         -0.34280868	          0.92058557	          1.56297753	         -0.34833223	          0.93359371	          1.43039768	         -0.11615058	          0.98410645	          1.37116954	         -0.10201460	          0.93467947	          1.29585282	         -0.04313926	          0.91348944	          1.23402566	         -0.01077279	          0.88401544	          1.20952123	         -0.09343472	          0.81591745	          1.50557685	         -0.54253372	          0.81132264	          1.43062205	         -0.58586601	          0.71712108	          1.40028256	         -0.59299921	          0.67499858	          1.34253481	         -0.61091847	          0.67382051	          1.31347645	         -0.52495782	          1.00643595	          1.19561532	         -0.05607977	          1.11353437	          1.19673125	         -0.20180533	          1.12258926	          1.14634780	         -0.15549216	          0.72751441	          1.28003414	         -0.62425613	          0.90606292	          1.23483480	         -0.57025721	          0.87937777	          1.18233698	         -0.61171882	
2.59	        -10.94824826	          1.17468152	          6.00357702	          0.98566360	          1.01264331	         -0.36469715	         -0.19123192	          2.27954770	         -2.43803746	        -73.90943602	        -15.72585588	         35.57131296	          9.26548723	          5.18358006	        -13.35415031	          1.41241849	          0.16868984	         -1.62510272	          5.74700012	        -22.40159169	        -21.16719147	         -4.45051314	        112.78740890	        114.38944196	        -47.71812988	        -17.58837795	        -13.97220193	        122.84093579	        107.84076982	          0.00000000	          0.00000000	          0.00000000	          0.00000000	          0.00000000	          0.00000000	          0.00000000	          0.00000000	          0.98729949	          1.05941409	         -0.48129265	          1.01453496	          1.04245689	         -0.24288452	          0.83444880	          1.11007261	         -0.40432136	          0.84904852	          1.10276698	         -0.29123617	          0.93350534	          0.92205854	         -0.18897637	          0.84241173	          0.79095945	         -0.20763065	          0.84449409	          0.63528113	         -0.22676725	          0.95055963	          0.93251410	         -0.54242919	          0.94227850	          0.76741035	         -0.48601929	          1.04283612	          0.66284954	         -0.48441639	          0.69399056	          0.45312716	         -0.29274146	          0.63890807	          0.52325428	         -0.22192191	          0.50139896	          0.45129613	         -0.28476356	          1.16691100	          0.46916755	         -0.41882159	          1.10473189	          0.34362277	         -0.46334032	          1.18481834	          0.25318427	         -0.40148047	          0.38324259	          0.55474138	         -0.25665534	          0.32909622	          0.32872911	         -0.32678593	          0.30476428	          0.35902991	         -0.22875776	          1.09747315	          0.09140486	         -0.36828881	          1.32421732	          0.15226330	         -0.35062044	          1.29320515	          0.07251817	         -0.42409798	          0.94386675	          1.54741144	         -0.51320189	          1.01873184	          1.51705767	         -0.20682413	          1.04361701	          1.48639244	         -0.34377992	          0.92129424	          1.55695760	         -0.35024184	          0.93063783	          1.42570270	         -0.11734645	          0.98007193	          1.36542693	         -0.10181670	          0.92891857	          1.29145980	         -0.04312996	          0.90568971	          1.23107320	         -0.00994242	          0.87681871	          1.20584229	         -0.09241205	          0.81710044	          1.49497933	         -0.54678122	          0.81517908	          1.41861767	         -0.58865482	          0.72199423	          1.38552502	         -0.59690711	          0.68131135	          1.32714115	         -0.61455433	          0.67977577	          1.29895850	         -0.52837126	          0.99719272	          1.18655709	         -0.05226270	          1.10738378	          1.17527909	         -0.19512493	          1.11193031	          1.12597320	         -0.14710582	          0.73490879	          1.26531357	         -0.62702281	          0.91362041	          1.22357831	         -0.57073936	          0.88822377	          1.17040744	         -0.61211170	
2.6	        -10.98970731	          1.28214010	          5.86699866	          0.98495847	          1.00520250	         -0.36449192	          2.44403509	          1.48206354	         -2.93185141	        -79.82610253	        -14.09667142	         35.34988915	          9.19032757	          3.61933753	        -15.72146343	         -0.74082166	          0.08293654	         -1.90518115	          5.32424414	        -23.39643827	        -21.10696799	         -4.67157046	        109.44904208	        114.52790789	        -45.89538481	        -17.57548484	        -13.33617436	        121.94486831	        107.63639651	          0.00000000	          0.00000000	          0.00000000	          0.00000000	          0.00000000	          0.00000000	          0.00000000	          0.00000000	          0.98752152	          1.05112509	         -0.48033772	          1.01391662	          1.03656585	         -0.24298994	          0.83428294	          1.10226448	         -0.40440600	          0.84851928	          1.09532981	         -0.29117381	          0.93395775	          0.91516486	         -0.18874711	          0.84723388	          0.78158644	         -0.20938925	          0.85618655	          0.62552985	         -0.22458431	          0.94857335	          0.92451436	         -0.54174768	          0.93940440	          0.75966303	         -0.48504656	          1.03933788	          0.65486547	         -0.48439699	          0.70979410	          0.44841695	         -0.28859645	          0.65818803	          0.52337969	         -0.22008158	          0.51765327	          0.45794249	         -0.28221024	          1.15887302	          0.45642572	         -0.42080432	          1.09008701	          0.33322116	         -0.46229989	          1.16762665	          0.23989657	         -0.40153603	          0.40332759	          0.56857207	         -0.25743843	          0.34222087	          0.34247799	         -0.32156944	          0.31853387	          0.37635282	         -0.22454029	          1.07187786	          0.09020141	         -0.36503042	          1.30209870	          0.12796895	         -0.35063911	          1.26914912	          0.05139154	         -0.42548549	          0.94503602	          1.53817238	         -0.51542667	          1.01837348	          1.50937176	         -0.20737609	          1.04433537	          1.47893540	         -0.34462463	          0.92172543	          1.54975665	         -0.35219556	          0.92729700	          1.41994165	         -0.11856830	          0.97558134	          1.35847812	         -0.10194121	          0.92270613	          1.28607448	         -0.04329125	          0.89734597	          1.22745658	         -0.00927951	          0.86969537	          1.20148801	         -0.09152106	          0.81838361	          1.48306032	         -0.55116838	          0.81945779	          1.40542103	         -0.59174961	          0.72732186	          1.36966825	         -0.60111396	          0.68825521	          1.31061195	         -0.61868458	          0.68640781	          1.28317067	         -0.53192179	          0.98712448	          1.17675246	         -0.04799722	          1.09927331	          1.15217841	         -0.18757670	          1.09950858	          1.10471670	         -0.13765114	          0.74296801	          1.24934497	         -0.63013272	          0.92160376	          1.21090846	         -0.57138677	          0.89748984	          1.15700671	         -0.61248030	
